# Generated by the ObjMesh class
# Number of vertices: 34
# Number of texture coordinates: 0
# Number of normals: 34
# Number of faces: 64
# Number of groups: 1
v 0 0.030719 -1
v 0.19509 0.030719 -0.980785
v 0.382683 0.030719 -0.92388
v 0.55557 0.030719 -0.83147
v 0.707107 0.030719 -0.707107
v 0.83147 0.030719 -0.55557
v 0.92388 0.030719 -0.382683
v 0.980785 0.030719 -0.19509
v 1 0.030719 -0
v 0.980785 0.030719 0.19509
v 0.92388 0.030719 0.382683
v 0.83147 0.030719 0.55557
v 0.707107 0.030719 0.707107
v 0.55557 0.030719 0.83147
v 0.382683 0.030719 0.92388
v 0.19509 0.030719 0.980785
v -0 0.030719 1
v -0.195091 0.030719 0.980785
v -0.382684 0.030719 0.923879
v -0.555571 0.030719 0.831469
v -0.707107 0.030719 0.707106
v -0.83147 0.030719 0.55557
v -0.92388 0.030719 0.382683
v -0.980785 0.030719 0.195089
v -1 0.030719 -1e-06
v -0.980785 0.030719 -0.195091
v -0.923879 0.030719 -0.382684
v -0.831469 0.030719 -0.555571
v -0.707106 0.030719 -0.707108
v -0.555569 0.030719 -0.83147
v -0.382682 0.030719 -0.92388
v -0.195089 0.030719 -0.980786
v 0 2.03072 0
v 0 0.030719 0
vn 1.92435e-06 -0.50329 -0.864118
vn 0.16858 -0.503291 -0.847514
vn 0.330682 -0.50329 -0.798341
vn 0.480078 -0.50329 -0.718488
vn 0.611024 -0.50329 -0.611024
vn 0.718488 -0.50329 -0.480078
vn 0.798341 -0.50329 -0.330682
vn 0.847514 -0.503291 -0.16858
vn 0.864118 -0.50329 1.35146e-18
vn 0.847514 -0.503291 0.16858
vn 0.798341 -0.50329 0.330682
vn 0.718488 -0.50329 0.480078
vn 0.611024 -0.50329 0.611024
vn 0.480078 -0.50329 0.718488
vn 0.330682 -0.50329 0.798341
vn 0.16858 -0.503291 0.847514
vn 2.1024e-07 -0.50329 0.864118
vn -0.168582 -0.50329 0.847514
vn -0.330684 -0.50329 0.79834
vn -0.480079 -0.50329 0.718487
vn -0.611023 -0.503291 0.611023
vn -0.718487 -0.50329 0.480079
vn -0.798342 -0.503289 0.330682
vn -0.847514 -0.503291 0.168579
vn -0.864118 -0.50329 -2.31672e-08
vn -0.847514 -0.50329 -0.168582
vn -0.79834 -0.50329 -0.330684
vn -0.718488 -0.50329 -0.480078
vn -0.611022 -0.503289 -0.611025
vn -0.480076 -0.50329 -0.718488
vn -0.330684 -0.50329 -0.79834
vn -0.16858 -0.503289 -0.847514
vn -4.62848e-08 1 1.91218e-08
vn 0 -1 0
g Default
f 1//1 33//33 2//2
f 1//1 2//2 34//34
f 1//1 32//32 33//33
f 34//34 32//32 1//1
f 2//2 33//33 3//3
f 2//2 3//3 34//34
f 3//3 33//33 4//4
f 3//3 4//4 34//34
f 4//4 33//33 5//5
f 4//4 5//5 34//34
f 5//5 33//33 6//6
f 5//5 6//6 34//34
f 6//6 33//33 7//7
f 6//6 7//7 34//34
f 7//7 33//33 8//8
f 7//7 8//8 34//34
f 8//8 33//33 9//9
f 8//8 9//9 34//34
f 9//9 33//33 10//10
f 9//9 10//10 34//34
f 10//10 33//33 11//11
f 10//10 11//11 34//34
f 11//11 33//33 12//12
f 11//11 12//12 34//34
f 12//12 33//33 13//13
f 12//12 13//13 34//34
f 13//13 33//33 14//14
f 13//13 14//14 34//34
f 15//15 14//14 33//33
f 34//34 14//14 15//15
f 15//15 33//33 16//16
f 15//15 16//16 34//34
f 33//33 17//17 16//16
f 16//16 17//17 34//34
f 17//17 33//33 18//18
f 34//34 17//17 18//18
f 18//18 33//33 19//19
f 19//19 34//34 18//18
f 19//19 33//33 20//20
f 20//20 34//34 19//19
f 20//20 33//33 21//21
f 21//21 34//34 20//20
f 21//21 33//33 22//22
f 22//22 34//34 21//21
f 22//22 33//33 23//23
f 23//23 34//34 22//22
f 23//23 33//33 24//24
f 24//24 34//34 23//23
f 24//24 33//33 25//25
f 25//25 34//34 24//24
f 25//25 33//33 26//26
f 26//26 34//34 25//25
f 26//26 33//33 27//27
f 27//27 34//34 26//26
f 27//27 33//33 28//28
f 28//28 34//34 27//27
f 28//28 33//33 29//29
f 29//29 34//34 28//28
f 29//29 33//33 30//30
f 30//30 34//34 29//29
f 30//30 33//33 31//31
f 31//31 34//34 30//30
f 33//33 32//32 31//31
f 31//31 32//32 34//34
