# Generated by the ObjMesh class
# Number of vertices: 68
# Number of texture coordinates: 0
# Number of normals: 68
# Number of faces: 132
# Number of groups: 1
v 0 -0.083115 -1.06583
v 0.207934 -0.083115 -1.04535
v 0.407877 -0.083115 -0.984702
v 0.592145 -0.083115 -0.886208
v 0.753658 -0.083115 -0.753658
v 0.886208 -0.083115 -0.592145
v 0.984702 -0.083115 -0.407877
v 1.04535 -0.083115 -0.207934
v 1.06583 -0.083115 -0
v 1.04535 -0.083115 0.207934
v 0.984702 -0.083115 0.407877
v 0.886208 -0.083115 0.592145
v 0.753658 -0.083115 0.753658
v 0.592145 -0.083115 0.886208
v 0.407877 -0.083115 0.984702
v 0.207934 -0.083115 1.04535
v -0 -0.083115 1.06583
v -0.207934 -0.083115 1.04535
v -0.407877 -0.083115 0.984701
v -0.592146 -0.083115 0.886208
v -0.753658 -0.083115 0.753658
v -0.886208 -0.083115 0.592145
v -0.984702 -0.083115 0.407876
v -1.04535 -0.083115 0.207933
v -1.06583 -0.083115 -1e-06
v -1.04535 -0.083115 -0.207935
v -0.984701 -0.083115 -0.407878
v -0.886207 -0.083115 -0.592146
v -0.753657 -0.083115 -0.753659
v -0.592144 -0.083115 -0.886209
v -0.407875 -0.083115 -0.984702
v -0.207932 -0.083115 -1.04535
v 2e-06 0.083115 -1.06583
v 0.207936 0.083115 -1.04535
v 0.407878 0.083115 -0.984701
v 0.592147 0.083115 -0.886207
v 0.753659 0.083115 -0.753657
v 0.886209 0.083115 -0.592143
v 0.984702 0.083115 -0.407875
v 1.04535 0.083115 -0.207932
v 1.06583 0.083115 2e-06
v 1.04535 0.083115 0.207936
v 0.984701 0.083115 0.407878
v 0.886207 0.083115 0.592146
v 0.753657 0.083115 0.753658
v 0.592145 0.083115 0.886208
v 0.407877 0.083115 0.984702
v 0.207934 0.083115 1.04535
v 1e-06 0.083115 1.06583
v -0.207932 0.083115 1.04535
v -0.407875 0.083115 0.984702
v -0.592143 0.083115 0.886209
v -0.753656 0.083115 0.75366
v -0.886206 0.083115 0.592148
v -0.9847 0.083115 0.40788
v -1.04535 0.083115 0.207938
v -1.06583 0.083115 4e-06
v -1.04535 0.083115 -0.207929
v -0.984704 0.083115 -0.407872
v -0.886211 0.083115 -0.592141
v -0.753662 0.083115 -0.753654
v -0.592151 0.083115 -0.886204
v -0.407883 0.083115 -0.984699
v -0.207941 0.083115 -1.04535
v 0 -0.083115 0
v 0 0.083115 0
v 0.672902 0 -0.819932
v 0.819934 0 -0.672901
vn -8.87953e-07 -0.685696 -0.727888
vn 0.141998 -0.685699 -0.7139
vn 0.278546 -0.685693 -0.672486
vn 0.404394 -0.685697 -0.605215
vn 0.514693 -0.685696 -0.514696
vn 0.605217 -0.685697 -0.404392
vn 0.672486 -0.685693 -0.278547
vn 0.713901 -0.685698 -0.141998
vn 0.727888 -0.685696 -5.46479e-07
vn 0.7139 -0.685699 0.141998
vn 0.672486 -0.685693 0.278546
vn 0.605216 -0.685696 0.404394
vn 0.514696 -0.685695 0.514695
vn 0.404393 -0.685697 0.605216
vn 0.278546 -0.685694 0.672485
vn 0.141997 -0.685699 0.713901
vn -3.70928e-07 -0.685696 0.727888
vn -0.141999 -0.685698 0.713901
vn -0.278546 -0.685695 0.672483
vn -0.404393 -0.685695 0.605218
vn -0.514695 -0.685697 0.514693
vn -0.605216 -0.685697 0.404392
vn -0.672484 -0.685695 0.278546
vn -0.713899 -0.685701 0.141996
vn -0.727888 -0.685696 -1.46389e-06
vn -0.713902 -0.685697 -0.141998
vn -0.672482 -0.685696 -0.278547
vn -0.605214 -0.685698 -0.404393
vn -0.514694 -0.685697 -0.514695
vn -0.404391 -0.685697 -0.605217
vn -0.278544 -0.685697 -0.672483
vn -0.141994 -0.685702 -0.713898
vn 1.00849e-06 0.685696 -0.727888
vn 0.142 0.685697 -0.713902
vn 0.278546 0.685696 -0.672483
vn 0.404395 0.685696 -0.605216
vn 0.514694 0.685696 -0.514695
vn 0.605217 0.685698 -0.404389
vn 0.672484 0.685696 -0.278544
vn 0.7139 0.685699 -0.141997
vn 0.727888 0.685696 5.46479e-07
vn 0.713902 0.685697 0.142
vn 0.672483 0.685695 0.278547
vn 0.605215 0.685697 0.404394
vn 0.514693 0.685698 0.514693
vn 0.404393 0.685697 0.605215
vn 0.278546 0.685694 0.672485
vn 0.141997 0.685699 0.713901
vn 1.75552e-07 0.685696 0.727888
vn -0.141997 0.685699 0.7139
vn -0.278545 0.685695 0.672485
vn -0.404389 0.685698 0.605217
vn -0.514693 0.685697 0.514695
vn -0.605215 0.685697 0.404394
vn -0.672481 0.685696 0.27855
vn -0.713902 0.685696 0.142001
vn -0.727888 0.685696 1.19547e-06
vn -0.713898 0.685702 -0.141992
vn -0.672486 0.685694 -0.278542
vn -0.605219 0.685696 -0.40439
vn -0.514697 0.685697 -0.514691
vn -0.404397 0.685698 -0.605212
vn -0.278552 0.685696 -0.672481
vn -0.142001 0.685694 -0.713904
vn 0 -1 0
vn 0 1 0
vn 0.634394 -1.0743e-06 -0.77301
vn 0.773012 1.07426e-06 -0.634391
g Default
f 1//1 33//33 2//2
f 1//1 2//2 65//65
f 33//33 1//1 32//32
f 1//1 65//65 32//32
f 2//2 35//35 3//3
f 2//2 3//3 65//65
f 2//2 33//33 34//34
f 2//2 34//34 35//35
f 36//36 4//4 3//3
f 3//3 4//4 65//65
f 3//3 35//35 36//36
f 65//65 4//4 5//5
f 5//5 4//4 67//67
f 4//4 36//36 67//67
f 65//65 5//5 6//6
f 6//6 5//5 68//68
f 67//67 37//37 5//5
f 5//5 37//37 68//68
f 6//6 39//39 7//7
f 6//6 7//7 65//65
f 6//6 38//38 39//39
f 38//38 6//6 68//68
f 7//7 39//39 8//8
f 7//7 8//8 65//65
f 8//8 40//40 9//9
f 8//8 9//9 65//65
f 8//8 39//39 40//40
f 9//9 41//41 10//10
f 9//9 10//10 65//65
f 9//9 40//40 41//41
f 10//10 43//43 11//11
f 10//10 11//11 65//65
f 10//10 41//41 42//42
f 10//10 42//42 43//43
f 11//11 43//43 12//12
f 11//11 12//12 65//65
f 12//12 45//45 13//13
f 12//12 13//13 65//65
f 12//12 43//43 44//44
f 12//12 44//44 45//45
f 13//13 46//46 14//14
f 13//13 14//14 65//65
f 45//45 46//46 13//13
f 14//14 47//47 15//15
f 65//65 14//14 15//15
f 14//14 46//46 47//47
f 15//15 48//48 16//16
f 65//65 15//15 16//16
f 15//15 47//47 48//48
f 49//49 17//17 16//16
f 16//16 17//17 65//65
f 49//49 16//16 48//48
f 18//18 17//17 50//50
f 65//65 17//17 18//18
f 17//17 49//49 50//50
f 18//18 51//51 19//19
f 19//19 65//65 18//18
f 18//18 50//50 51//51
f 19//19 52//52 20//20
f 20//20 65//65 19//19
f 51//51 52//52 19//19
f 20//20 53//53 21//21
f 21//21 65//65 20//20
f 20//20 52//52 53//53
f 21//21 54//54 22//22
f 22//22 65//65 21//21
f 53//53 54//54 21//21
f 22//22 55//55 23//23
f 23//23 65//65 22//22
f 54//54 55//55 22//22
f 23//23 56//56 24//24
f 24//24 65//65 23//23
f 23//23 55//55 56//56
f 24//24 57//57 25//25
f 25//25 65//65 24//24
f 56//56 57//57 24//24
f 25//25 58//58 26//26
f 26//26 65//65 25//25
f 57//57 58//58 25//25
f 26//26 59//59 27//27
f 27//27 65//65 26//26
f 26//26 58//58 59//59
f 27//27 60//60 28//28
f 28//28 65//65 27//27
f 59//59 60//60 27//27
f 28//28 61//61 29//29
f 29//29 65//65 28//28
f 60//60 61//61 28//28
f 29//29 62//62 30//30
f 30//30 65//65 29//29
f 61//61 62//62 29//29
f 30//30 63//63 31//31
f 31//31 65//65 30//30
f 62//62 63//63 30//30
f 31//31 64//64 32//32
f 32//32 65//65 31//31
f 63//63 64//64 31//31
f 64//64 33//33 32//32
f 34//34 33//33 66//66
f 66//66 33//33 64//64
f 35//35 34//34 66//66
f 36//36 35//35 66//66
f 66//66 37//37 36//36
f 36//36 37//37 67//67
f 66//66 38//38 37//37
f 37//37 38//38 68//68
f 39//39 38//38 66//66
f 40//40 39//39 66//66
f 41//41 40//40 66//66
f 42//42 41//41 66//66
f 43//43 42//42 66//66
f 44//44 43//43 66//66
f 45//45 44//44 66//66
f 46//46 45//45 66//66
f 47//47 46//46 66//66
f 48//48 47//47 66//66
f 49//49 48//48 66//66
f 50//50 49//49 66//66
f 50//50 66//66 51//51
f 51//51 66//66 52//52
f 52//52 66//66 53//53
f 53//53 66//66 54//54
f 54//54 66//66 55//55
f 55//55 66//66 56//56
f 56//56 66//66 57//57
f 57//57 66//66 58//58
f 58//58 66//66 59//59
f 59//59 66//66 60//60
f 60//60 66//66 61//61
f 61//61 66//66 62//62
f 62//62 66//66 63//63
f 63//63 66//66 64//64
